<svg xmlns="http://www.w3.org/2000/svg" width="300" height="300" viewBox="0 0 300 300">
    <g fill="none" fill-rule="nonzero">
        <path fill="#4267B2" d="M283.448 0H16.552C7.41 0 0 7.41 0 16.552v266.896C0 292.59 7.41 300 16.552 300h143.793V183.983h-39.052v-45.414h39.052v-33.414c0-38.741 23.69-59.845 58.241-59.845 11.644-.025 23.28.562 34.862 1.759v40.5h-23.793c-18.827 0-22.5 8.897-22.5 22.034v28.914h45l-5.845 45.414h-39.413V300h76.551c9.142 0 16.552-7.41 16.552-16.552V16.552C300 7.41 292.59 0 283.448 0z"/>
        <path fill="#FFF" d="M207.16 300V183.99h39.967l5.965-45.412H207.16v-28.912c0-13.137 3.749-22.033 22.966-22.033h24.55v-40.55a345.923 345.923 0 0 0-35.637-1.758c-35.32 0-59.394 21.102-59.394 59.841v33.412h-39.86v45.411h39.86V300h47.515z"/>
    </g>
</svg>
