<svg xmlns="http://www.w3.org/2000/svg" width="300" height="300" viewBox="0 0 300 300">
    <g fill="none" fill-rule="evenodd">
        <rect width="300" height="300" fill="#1377B5" rx="15"/>
        <path fill="#FFF" fill-rule="nonzero" d="M265 176.002V265h-49.208v-83.038c0-20.86-7.117-35.095-24.929-35.095-13.597 0-21.688 9.594-25.248 18.874-1.298 3.318-1.632 7.936-1.632 12.58V265h-49.225s.663-140.638 0-155.21h49.22v22c-.1.165-.23.343-.324.502h.324v-.501c6.539-10.56 18.218-25.647 44.358-25.647 32.386 0 56.664 22.183 56.664 69.858zM62.526 35C45.885 35 35 46.362 35 61.304c0 14.616 10.57 26.323 26.88 26.323h.325c16.963 0 27.513-11.705 27.513-26.323C89.398 46.362 79.168 35 62.526 35zM37.782 265h48.226V110.042H37.782V265z"/>
    </g>
</svg>
