<svg xmlns="http://www.w3.org/2000/svg" width="300" height="309" viewBox="0 0 300 309">
    <g fill="none" fill-rule="evenodd">
        <circle cx="150" cy="150" r="150" fill="#B7081B"/>
        <path fill="#FFF" fill-rule="nonzero" d="M166.537 238.67c-15.498-1.21-22.001-8.931-34.148-16.354-6.682 35.245-14.845 69.035-39.022 86.684-7.464-53.267 10.958-93.277 19.511-135.748-14.586-24.698 1.756-74.4 32.52-62.15 37.853 15.061-32.78 91.816 14.636 101.404 49.51 10.008 69.72-86.406 39.023-117.759-44.359-45.272-129.122-1.032-118.7 63.786 2.537 15.847 18.814 20.654 6.505 42.524-28.39-6.33-36.861-28.853-35.77-58.878C52.845 93.03 94.992 58.62 137.267 53.86c53.463-6.02 103.64 19.74 110.57 70.327 7.799 57.092-24.135 118.929-81.301 114.483z"/>
    </g>
</svg>
