<svg xmlns="http://www.w3.org/2000/svg" width="33.782" height="23.25" viewBox="0 0 33.782 23.25">
  <defs>
    <style>
      .cls-1 {
        fill: #c7c7c7;
        fill-rule: evenodd;
      }
    </style>
  </defs>
  <path id="quote-up.svg" class="cls-1" d="M427.176,2912.25h-7.088l-6.855,9.87a10.821,10.821,0,0,0-2.091,6.22,6.678,6.678,0,0,0,2.149,5.17,7.515,7.515,0,0,0,5.287,1.98,7.187,7.187,0,0,0,5.228-2.04,7.394,7.394,0,0,0,2.092-5.57,6.422,6.422,0,0,0-3.253-5.64Zm17.777,0h-7.088l-6.855,9.87a10.821,10.821,0,0,0-2.091,6.22,6.678,6.678,0,0,0,2.149,5.17,7.513,7.513,0,0,0,5.287,1.98,7.187,7.187,0,0,0,5.228-2.04,7.4,7.4,0,0,0,2.091-5.57,6.42,6.42,0,0,0-3.253-5.64Z" transform="translate(-411.156 -2912.25)"/>
</svg>
