<svg xmlns="http://www.w3.org/2000/svg" width="34" height="23" viewBox="0 0 34 23">
  <defs>
    <style>
      .cls-1 {
        fill: #c7c7c7;
        fill-rule: evenodd;
      }
    </style>
  </defs>
  <path id="quote-down.svg" class="cls-1" d="M428.877,2935h7.133l6.9-9.77a10.543,10.543,0,0,0,2.105-6.15,6.546,6.546,0,0,0-2.163-5.11,7.619,7.619,0,0,0-5.321-1.96,7.063,7.063,0,0,0-7.367,7.53,6.333,6.333,0,0,0,3.274,5.58Zm-17.892,0h7.133l6.9-9.77a10.55,10.55,0,0,0,2.105-6.15,6.543,6.543,0,0,0-2.164-5.11,7.619,7.619,0,0,0-5.321-1.96,7.063,7.063,0,0,0-7.367,7.53,6.333,6.333,0,0,0,3.274,5.58Z" transform="translate(-411 -2912)"/>
</svg>
