<svg xmlns="http://www.w3.org/2000/svg" width="368" height="300" viewBox="0 0 368 300">
    <path fill="#1DA1F2" fill-rule="nonzero" d="M115.729 300c138.868 0 214.823-115.428 214.823-215.527 0-3.278 0-6.542-.22-9.79A153.898 153.898 0 0 0 368 35.472a150.32 150.32 0 0 1-43.365 11.918 75.969 75.969 0 0 0 33.193-41.898 151.008 151.008 0 0 1-47.943 18.387c-23.403-24.967-60.591-31.078-90.71-14.906-30.12 16.172-45.681 50.605-37.957 83.991C120.51 89.912 63.95 61.145 25.613 13.823c-20.04 34.61-9.804 78.889 23.375 101.117a74.753 74.753 0 0 1-34.268-9.481v.96c.01 36.058 25.344 67.114 60.573 74.254a75.143 75.143 0 0 1-34.092 1.3c9.891 30.857 38.237 51.995 70.539 52.604a151.184 151.184 0 0 1-93.767 32.49A153.197 153.197 0 0 1 0 265.974a213.241 213.241 0 0 0 115.729 33.967"/>
</svg>
