<svg xmlns="http://www.w3.org/2000/svg" width="295" height="300" viewBox="0 0 295 300">
    <g fill="#2FB140" fill-rule="evenodd">
        <path fill-rule="nonzero" d="M136.918.55c-16.948 1.42-35.775 6.778-51.716 14.748C56.48 29.634 33.898 52.35 19.88 80.93-.733 122.885-.137 169.695 21.484 213.435l3.435 6.916L12.231 258C2.703 286.351-.321 295.832.046 296.382c.275.412.916.778 1.466.87.733.137.962.458.962 1.511 0 1.237.137 1.374 1.053 1.054 3.253-1.008 29.638-9.435 51.442-16.397l25.194-8.061 6.642 3.114c26.065 12.458 52.633 16.947 80.346 13.558 41.319-5.039 78.514-28.031 101.647-62.932 18.735-28.214 28.126-63.206 25.423-95.13-2.473-29.587-13.284-56.84-31.744-79.923-18.14-22.718-43.975-39.94-72.239-48.183-6.046-1.787-16.903-4.03-23.316-4.855C161.655.32 143.148.046 136.918.55zm29.317 30.87c26.569 3.985 49.197 15.298 68.024 34.168 18.323 18.275 29.225 39.939 32.34 64.35.962 7.604 1.008 22.215.046 29.772-3.252 25.878-14.933 49.603-33.53 68.244-13.743 13.832-28.768 23.13-46.954 29.13-12.047 3.939-22.308 5.542-36.187 5.542-11.406.046-17.957-.687-27.714-3.069-13.284-3.206-22.08-6.962-36.967-15.755-1.145-.687-1.97-.458-22.354 6.045-11.635 3.71-21.346 6.642-21.53 6.504-.228-.137 2.612-9.16 6.23-20.06 3.62-10.856 6.597-20.291 6.597-20.886 0-.596-1.191-2.978-2.703-5.268-16.307-25.328-22.491-52.946-18.323-82.03 2.428-16.992 8.246-31.924 17.911-45.847 20.155-29.176 51.808-47.817 87.4-51.481 5.452-.55 22.263-.184 27.714.64z"/>
        <path d="M97.524 73.97c-2.84.961-5.222 2.656-8.75 6.32-7.786 8.153-11.451 16.672-11.955 28.122-.595 13.145 4.535 27.664 16.124 45.573 19.377 29.908 38.845 47.45 64.589 58.168 13.192 5.496 21.804 8.336 27.484 9.16 4.26.55 12.689-.687 17.911-2.702 4.718-1.832 11.314-6.138 14.246-9.344 4.49-4.946 8.383-15.939 8.383-23.77 0-3.253-.092-3.665-1.237-4.947-2.336-2.565-31.378-17.726-34.814-18.184-3.114-.412-4.351.458-9.482 6.458-7.97 9.298-10.444 11.726-11.864 11.726-1.649 0-12.689-5.542-17.956-9.023-12.872-8.52-23.591-20.199-31.974-35.038-.687-1.191-1.237-2.336-1.237-2.611 0-.275 1.466-2.107 3.253-4.03 4.305-4.718 5.725-6.87 7.558-11.314 2.107-4.992 2.015-6.32-.779-13.878-4.031-10.992-5.314-14.427-7.512-20.335-2.29-6.138-4.031-8.84-6.368-9.802-2.153-.916-13.375-1.282-15.62-.55z"/>
    </g>
</svg>
